# xmcd
# Copyright (C) 1995-1998 Ti Kan
#
# Track frame offsets:
#       150
#       21525
#       38772
#       53847
#       72522
#       88385
#       109272
#       124620
#       147230
#       163684
#       181722
#
# Disc length: 2565 seconds
#
# Revision: 3
# Processed by: cddbd v1.4PL0 Copyright (c) Steve Scherf et al.
# Submitted via: CD-Transfer v1.0
#
DISCID=9c0a030b
DTITLE=Dänu Siegrist Band - Dänu Siegrist Band
DYEAR=1995
DGENRE=
TTITLE0=Gib Nid Uf
TTITLE1=Ha No E Ring Vo Dir
TTITLE2=Müller's Willy
TTITLE3=Vers Minuit
TTITLE4=Schpiel Mit Em Füür
TTITLE5=Gasseschüeler
TTITLE6=Samschtinamittag
TTITLE7=Mach's Guet
TTITLE8=9 - 19
TTITLE9=Aberot
TTITLE10=We Du No Da Wärsch
EXTD=
EXTT0=
EXTT1=
EXTT2=
EXTT3=
EXTT4=
EXTT5=
EXTT6=
EXTT7=
EXTT8=
EXTT9=
EXTT10=
PLAYORDER=
